<mxfile host="app.diagrams.net" modified="2021-02-22T09:31:40.755Z" agent="5.0 (Windows NT 10.0; Win64; x64) AppleWebKit/537.36 (KHTML, like Gecko) Chrome/88.0.4324.182 Safari/537.36" etag="qxVmTKmaaKsRGW8Fa_uV" version="14.4.2" type="github">
  <diagram id="BIsKbhyatXel8_WN1CCF" name="Page-1">
    <mxGraphModel dx="1422" dy="772" grid="1" gridSize="10" guides="1" tooltips="1" connect="1" arrows="1" fold="1" page="1" pageScale="1" pageWidth="827" pageHeight="1169" math="0" shadow="0">
      <root>
        <mxCell id="0" />
        <mxCell id="1" parent="0" />
        <mxCell id="EurMPWX4C0CIGNX6tZvg-16" value="" style="strokeWidth=1;shadow=0;dashed=0;align=center;html=1;shape=mxgraph.mockup.containers.browserWindow;rSize=0;strokeColor=#666666;strokeColor2=#008cff;strokeColor3=#c4c4c4;mainText=,;recursiveResize=0;" parent="1" vertex="1">
          <mxGeometry x="40" y="880" width="672" height="720" as="geometry" />
        </mxCell>
        <mxCell id="EurMPWX4C0CIGNX6tZvg-17" value="Page 1" style="strokeWidth=1;shadow=0;dashed=0;align=center;html=1;shape=mxgraph.mockup.containers.anchor;fontSize=17;fontColor=#666666;align=left;" parent="EurMPWX4C0CIGNX6tZvg-16" vertex="1">
          <mxGeometry x="60" y="12" width="110" height="26" as="geometry" />
        </mxCell>
        <object label="http://www.xxx" id="EurMPWX4C0CIGNX6tZvg-18">
          <mxCell style="strokeWidth=1;shadow=0;dashed=0;align=center;html=1;shape=mxgraph.mockup.containers.anchor;rSize=0;fontSize=17;fontColor=#666666;align=left;" parent="EurMPWX4C0CIGNX6tZvg-16" vertex="1">
            <mxGeometry x="130" y="60" width="250" height="26" as="geometry" />
          </mxCell>
        </object>
        <mxCell id="gU8XdLcXtA95Glaf5bmJ-7" value="" style="strokeWidth=1;shadow=0;dashed=0;align=center;html=1;shape=mxgraph.mockup.buttons.multiButton;strokeColor=#666666;mainText=;subText=;fontSize=17;fontColor=#666666;fillColor=#FFFFFF;" vertex="1" parent="EurMPWX4C0CIGNX6tZvg-16">
          <mxGeometry x="60" y="359" width="150" height="50" as="geometry" />
        </mxCell>
        <mxCell id="gU8XdLcXtA95Glaf5bmJ-4" value="TXT" style="strokeWidth=1;shadow=0;dashed=0;align=center;html=1;shape=mxgraph.mockup.buttons.multiButton;strokeColor=#666666;mainText=;subText=;fontSize=17;fontColor=#666666;labelBackgroundColor=#ffffff;fillColor=#FFFFFF;" vertex="1" parent="EurMPWX4C0CIGNX6tZvg-16">
          <mxGeometry x="60" y="200" width="150" height="100" as="geometry" />
        </mxCell>
        <mxCell id="gU8XdLcXtA95Glaf5bmJ-5" value="&lt;font color=&quot;#000000&quot;&gt;Separator&lt;/font&gt;" style="strokeWidth=1;shadow=0;dashed=0;align=center;html=1;shape=mxgraph.mockup.anchor;fontSize=16;fontColor=#ffffff;fontStyle=1;whiteSpace=wrap;" vertex="1" parent="gU8XdLcXtA95Glaf5bmJ-4">
          <mxGeometry y="-12.077272727272726" width="150" height="92.7272727272727" as="geometry" />
        </mxCell>
        <mxCell id="gU8XdLcXtA95Glaf5bmJ-10" value="CSV" style="strokeWidth=1;shadow=0;dashed=0;align=center;html=1;shape=mxgraph.mockup.buttons.multiButton;strokeColor=#666666;mainText=;subText=;labelBackgroundColor=#ffffff;fontSize=17;fontColor=#666666;fillColor=#FFFFFF;" vertex="1" parent="EurMPWX4C0CIGNX6tZvg-16">
          <mxGeometry x="250" y="200" width="160" height="100" as="geometry" />
        </mxCell>
        <mxCell id="gU8XdLcXtA95Glaf5bmJ-11" value="&lt;font color=&quot;#000000&quot;&gt;Column&lt;/font&gt;" style="strokeWidth=1;shadow=0;dashed=0;align=center;html=1;shape=mxgraph.mockup.anchor;fontSize=16;fontColor=#ffffff;fontStyle=1;whiteSpace=wrap;" vertex="1" parent="gU8XdLcXtA95Glaf5bmJ-10">
          <mxGeometry y="16" width="160" height="40" as="geometry" />
        </mxCell>
        <mxCell id="gU8XdLcXtA95Glaf5bmJ-13" value="" style="strokeWidth=1;shadow=0;dashed=0;align=center;html=1;shape=mxgraph.mockup.buttons.multiButton;strokeColor=#666666;mainText=;subText=;fontSize=17;fontColor=#666666;fillColor=#FFFFFF;" vertex="1" parent="EurMPWX4C0CIGNX6tZvg-16">
          <mxGeometry x="250" y="359" width="150" height="50" as="geometry" />
        </mxCell>
        <mxCell id="gU8XdLcXtA95Glaf5bmJ-14" value="&lt;span style=&quot;font-weight: normal&quot;&gt;&lt;font color=&quot;#000000&quot;&gt;Compare&lt;/font&gt;&lt;/span&gt;" style="strokeWidth=1;shadow=0;dashed=0;align=center;html=1;shape=mxgraph.mockup.buttons.button;strokeColor=#666666;fontColor=#ffffff;mainText=;buttonStyle=round;fontSize=17;fontStyle=1;whiteSpace=wrap;labelBackgroundColor=#ffffff;fillColor=#FFFFFF;" vertex="1" parent="EurMPWX4C0CIGNX6tZvg-16">
          <mxGeometry x="480" y="540" width="150" height="50" as="geometry" />
        </mxCell>
        <mxCell id="gU8XdLcXtA95Glaf5bmJ-18" value="TXT" style="strokeWidth=1;shadow=0;dashed=0;align=center;html=1;shape=mxgraph.mockup.forms.comboBox;strokeColor=#999999;fillColor=#ddeeff;align=left;fillColor2=#aaddff;mainText=;fontColor=#666666;fontSize=17;spacingLeft=3;labelBackgroundColor=#ffffff;" vertex="1" parent="EurMPWX4C0CIGNX6tZvg-16">
          <mxGeometry x="60" y="150" width="150" height="30" as="geometry" />
        </mxCell>
        <mxCell id="gU8XdLcXtA95Glaf5bmJ-19" value="CSV" style="strokeWidth=1;shadow=0;dashed=0;align=center;html=1;shape=mxgraph.mockup.forms.comboBox;strokeColor=#999999;fillColor=#ddeeff;align=left;fillColor2=#aaddff;mainText=;fontColor=#666666;fontSize=17;spacingLeft=3;labelBackgroundColor=#ffffff;" vertex="1" parent="EurMPWX4C0CIGNX6tZvg-16">
          <mxGeometry x="250" y="150" width="150" height="30" as="geometry" />
        </mxCell>
      </root>
    </mxGraphModel>
  </diagram>
</mxfile>
